<svg width="42" height="42" viewBox="0 0 42 42" fill="none" xmlns="http://www.w3.org/2000/svg">
<path d="M10.2375 29.925C11.725 28.7875 13.3875 27.8909 15.225 27.2353C17.0625 26.5796 18.9875 26.2512 21 26.25C23.0125 26.2488 24.9375 26.5773 26.775 27.2353C28.6125 27.8933 30.275 28.7898 31.7625 29.925C32.7833 28.7292 33.5784 27.3729 34.1478 25.8563C34.7171 24.3396 35.0012 22.7208 35 21C35 17.1208 33.6368 13.8174 30.9103 11.0898C28.1838 8.36208 24.8803 6.99883 21 7C17.1197 7.00117 13.8163 8.365 11.0898 11.0915C8.36325 13.818 7 17.1208 7 21C7 22.7208 7.28467 24.3396 7.854 25.8563C8.42334 27.3729 9.21784 28.7292 10.2375 29.925ZM21 22.75C19.2792 22.75 17.8278 22.1597 16.646 20.979C15.4642 19.7983 14.8738 18.347 14.875 16.625C14.8762 14.903 15.4671 13.4517 16.6478 12.271C17.8284 11.0903 19.2792 10.5 21 10.5C22.7208 10.5 24.1722 11.0909 25.354 12.2728C26.5358 13.4546 27.1262 14.9053 27.125 16.625C27.1238 18.3447 26.5335 19.796 25.354 20.979C24.1745 22.162 22.7232 22.7523 21 22.75ZM21 38.5C18.5792 38.5 16.3042 38.0403 14.175 37.121C12.0458 36.2017 10.1938 34.9551 8.61875 33.3813C7.04375 31.8074 5.79717 29.9553 4.879 27.825C3.96084 25.6947 3.50117 23.4197 3.5 21C3.49884 18.5803 3.9585 16.3053 4.879 14.175C5.7995 12.0447 7.04609 10.1926 8.61875 8.61875C10.1914 7.04492 12.0435 5.79833 14.175 4.879C16.3065 3.95967 18.5815 3.5 21 3.5C23.4185 3.5 25.6935 3.95967 27.825 4.879C29.9565 5.79833 31.8086 7.04492 33.3813 8.61875C34.9539 10.1926 36.2011 12.0447 37.1228 14.175C38.0444 16.3053 38.5035 18.5803 38.5 21C38.4965 23.4197 38.0368 25.6947 37.121 27.825C36.2052 29.9553 34.9586 31.8074 33.3813 33.3813C31.8039 34.9551 29.9518 36.2023 27.825 37.1227C25.6982 38.0433 23.4232 38.5023 21 38.5Z" fill="#0B6446"/>
</svg>
