<svg width="153" height="60" viewBox="0 0 153 60" fill="none" xmlns="http://www.w3.org/2000/svg">
<rect width="153" height="60" rx="5" fill="white"/>
<path d="M21.8178 19.7791C21.7864 20.0301 21.7551 20.3124 21.7237 20.6261C21.6923 20.9241 21.6688 21.2142 21.6531 21.4965C21.6374 21.8416 21.6218 22.2964 21.6061 22.8611C21.5904 23.41 21.5747 24.0138 21.559 24.6726C21.559 25.3156 21.559 25.9508 21.559 26.5782C21.559 27.2056 21.559 27.7702 21.559 28.2721C21.559 28.8524 21.5747 29.5346 21.6061 30.3189C21.6531 31.0874 21.7002 31.8873 21.7472 32.7185C21.81 33.5341 21.857 34.3183 21.8884 35.0711C21.9354 35.8083 21.959 36.4278 21.959 36.9297C21.959 37.6669 21.7629 38.3177 21.3708 38.8824C20.9944 39.4313 20.4376 39.8626 19.7005 40.1763C18.979 40.49 18.1007 40.6468 17.0655 40.6468C15.0736 40.6468 13.568 40.2704 12.5485 39.5176C11.5447 38.7804 11.0428 37.761 11.0428 36.4592C11.0428 35.6122 11.2781 34.8672 11.7486 34.2242C12.2348 33.5811 12.9249 33.0793 13.8189 32.7185C14.7286 32.3421 15.803 32.1539 17.042 32.1539C18.3595 32.1539 19.5828 32.2872 20.7121 32.5538C21.857 32.8205 22.9 33.1734 23.8411 33.6125C24.7821 34.036 25.6134 34.4908 26.3348 34.977C27.072 35.4632 27.6993 35.9181 28.2169 36.3415L26.1701 39.5176C25.5898 38.9686 24.9468 38.4275 24.241 37.8943C23.5509 37.361 22.7981 36.8826 21.9825 36.4592C21.1669 36.0357 20.3043 35.6985 19.3946 35.4476C18.5006 35.1966 17.5596 35.0711 16.5715 35.0711C15.9127 35.0711 15.403 35.1888 15.0423 35.424C14.6815 35.6436 14.5012 35.9181 14.5012 36.2474C14.5012 36.4984 14.5796 36.718 14.7364 36.9062C14.909 37.0787 15.1442 37.212 15.4422 37.3061C15.7402 37.3845 16.0931 37.4237 16.5009 37.4237C16.9087 37.4237 17.2459 37.3845 17.5125 37.3061C17.7948 37.212 18.0066 37.0552 18.1477 36.8356C18.2889 36.6003 18.3595 36.2867 18.3595 35.8945C18.3595 35.5966 18.3438 35.1496 18.3124 34.5536C18.281 33.9576 18.2497 33.291 18.2183 32.5538C18.1869 31.801 18.1556 31.0482 18.1242 30.2953C18.0928 29.5425 18.0771 28.8681 18.0771 28.2721C18.0771 27.6918 18.0771 27.0722 18.0771 26.4135C18.0928 25.7391 18.1007 25.0804 18.1007 24.4373C18.1007 23.7943 18.1007 23.214 18.1007 22.6964C18.1164 22.1788 18.1242 21.7789 18.1242 21.4965C18.1242 21.277 18.1085 21.0025 18.0771 20.6731C18.0615 20.3281 18.0223 20.0301 17.9595 19.7791H21.8178ZM11.631 21.7789C12.0701 21.8416 12.5485 21.9043 13.0661 21.9671C13.5837 22.0298 14.1012 22.0925 14.6188 22.1553C15.1521 22.2023 15.6461 22.2415 16.101 22.2729C16.5715 22.2886 16.9793 22.2964 17.3243 22.2964C18.9868 22.2964 20.618 22.2494 22.2178 22.1553C23.8175 22.0612 25.5271 21.8651 27.3465 21.5671L27.3229 24.8137C26.5701 24.9235 25.6526 25.0255 24.5704 25.1196C23.5038 25.2137 22.3432 25.2921 21.0885 25.3548C19.8495 25.4019 18.6026 25.4254 17.3478 25.4254C16.8773 25.4254 16.297 25.4097 15.6069 25.3784C14.9325 25.3313 14.2424 25.2764 13.5366 25.2137C12.8465 25.1353 12.2348 25.0647 11.7016 25.0019L11.631 21.7789ZM11.4898 26.9076C11.8506 26.9703 12.2897 27.033 12.8073 27.0958C13.3249 27.1585 13.8503 27.2056 14.3835 27.2369C14.9325 27.2683 15.4422 27.2997 15.9127 27.331C16.3833 27.3467 16.7518 27.3546 17.0185 27.3546C18.6496 27.3546 20.0847 27.3232 21.3238 27.2605C22.5785 27.1977 23.7156 27.1193 24.735 27.0252C25.7702 26.9311 26.7505 26.8291 27.6758 26.7193L27.6523 30.0601C26.8367 30.1542 26.0447 30.2326 25.2762 30.2953C24.5233 30.3581 23.747 30.413 22.9471 30.46C22.1472 30.4914 21.261 30.5149 20.2886 30.5306C19.3319 30.5463 18.2261 30.5541 16.9714 30.5541C16.5636 30.5541 16.0225 30.5463 15.3481 30.5306C14.6894 30.4992 14.015 30.46 13.3249 30.413C12.6348 30.3659 12.0388 30.311 11.5369 30.2483L11.4898 26.9076ZM41.3916 22.2259C42.1601 22.32 43.007 22.3905 43.9324 22.4376C44.8577 22.469 45.791 22.4768 46.732 22.4611C47.6887 22.4454 48.5984 22.4141 49.461 22.367C50.3393 22.32 51.1079 22.2651 51.7666 22.2023V25.8724C50.9981 25.9351 50.1747 25.99 49.2964 26.0371C48.418 26.0685 47.524 26.0841 46.6144 26.0841C45.7047 26.0841 44.8029 26.0685 43.9089 26.0371C43.0306 25.99 42.1993 25.9351 41.4151 25.8724L41.3916 22.2259ZM43.8148 32.5303C43.7363 32.9067 43.6736 33.2361 43.6265 33.5184C43.5952 33.8007 43.5795 34.0987 43.5795 34.4124C43.5795 34.6633 43.6422 34.8829 43.7677 35.0711C43.8932 35.2593 44.0735 35.4083 44.3088 35.5181C44.5598 35.6279 44.8656 35.7142 45.2263 35.7769C45.5871 35.824 46.0105 35.8475 46.4967 35.8475C47.5476 35.8475 48.5278 35.8004 49.4375 35.7063C50.3629 35.5966 51.3588 35.4319 52.4253 35.2123L52.4959 39.0706C51.7274 39.2117 50.8491 39.3215 49.861 39.3999C48.8886 39.4784 47.7044 39.5176 46.3085 39.5176C44.2539 39.5176 42.709 39.1568 41.6739 38.4354C40.6544 37.7139 40.1447 36.7258 40.1447 35.4711C40.1447 34.9692 40.176 34.4595 40.2388 33.9419C40.3172 33.4243 40.427 32.8597 40.5681 32.248L43.8148 32.5303ZM38.2626 20.7908C38.1998 20.9633 38.1214 21.2142 38.0273 21.5436C37.9332 21.873 37.847 22.1945 37.7685 22.5082C37.6901 22.8218 37.6352 23.0493 37.6039 23.1904C37.5568 23.4414 37.4862 23.8178 37.3921 24.3197C37.298 24.8216 37.1961 25.4019 37.0863 26.0606C36.9922 26.7037 36.8981 27.3702 36.804 28.0603C36.7099 28.7348 36.6314 29.3856 36.5687 30.013C36.506 30.6247 36.4746 31.1501 36.4746 31.5893C36.4746 31.6206 36.4746 31.7069 36.4746 31.8481C36.4746 31.9892 36.4824 32.0833 36.4981 32.1304C36.6079 31.9108 36.7099 31.7069 36.804 31.5187C36.9138 31.3305 37.0157 31.1423 37.1098 30.9541C37.2196 30.7502 37.3215 30.5384 37.4156 30.3189L39.1331 31.6834C38.8978 32.3892 38.6625 33.1263 38.4273 33.8948C38.2077 34.6633 38.0116 35.3848 37.8391 36.0592C37.6666 36.7336 37.5333 37.2904 37.4392 37.7296C37.4078 37.9021 37.3764 38.106 37.3451 38.3413C37.3137 38.5765 37.298 38.7491 37.298 38.8588C37.298 38.9843 37.298 39.1412 37.298 39.3294C37.298 39.5333 37.3059 39.7293 37.3215 39.9175L34.0279 40.1293C33.7926 39.3451 33.573 38.2628 33.3691 36.8826C33.1809 35.4868 33.0868 33.9889 33.0868 32.3892C33.0868 31.4952 33.1182 30.5933 33.1809 29.6836C33.2594 28.774 33.3456 27.9035 33.4397 27.0722C33.5495 26.2253 33.6515 25.4646 33.7456 24.7902C33.8554 24.1158 33.9416 23.559 34.0044 23.1198C34.0514 22.7591 34.1063 22.3356 34.169 21.8494C34.2318 21.3632 34.271 20.9005 34.2867 20.4614L38.2626 20.7908ZM111.879 19.7791C111.847 20.0301 111.816 20.3124 111.785 20.6261C111.753 20.9241 111.73 21.2142 111.714 21.4965C111.698 21.8416 111.683 22.2964 111.667 22.8611C111.651 23.41 111.636 24.0138 111.62 24.6726C111.62 25.3156 111.62 25.9508 111.62 26.5782C111.62 27.2056 111.62 27.7702 111.62 28.2721C111.62 28.8524 111.636 29.5346 111.667 30.3189C111.714 31.0874 111.761 31.8873 111.808 32.7185C111.871 33.5341 111.918 34.3183 111.949 35.0711C111.996 35.8083 112.02 36.4278 112.02 36.9297C112.02 37.6669 111.824 38.3177 111.432 38.8824C111.055 39.4313 110.499 39.8626 109.761 40.1763C109.04 40.49 108.162 40.6468 107.127 40.6468C105.135 40.6468 103.629 40.2704 102.61 39.5176C101.606 38.7804 101.104 37.761 101.104 36.4592C101.104 35.6122 101.339 34.8672 101.81 34.2242C102.296 33.5811 102.986 33.0793 103.88 32.7185C104.79 32.3421 105.864 32.1539 107.103 32.1539C108.421 32.1539 109.644 32.2872 110.773 32.5538C111.918 32.8205 112.961 33.1734 113.902 33.6125C114.843 34.036 115.674 34.4908 116.396 34.977C117.133 35.4632 117.76 35.9181 118.278 36.3415L116.231 39.5176C115.651 38.9686 115.008 38.4275 114.302 37.8943C113.612 37.361 112.859 36.8826 112.044 36.4592C111.228 36.0357 110.365 35.6985 109.456 35.4476C108.562 35.1966 107.621 35.0711 106.633 35.0711C105.974 35.0711 105.464 35.1888 105.103 35.424C104.743 35.6436 104.562 35.9181 104.562 36.2474C104.562 36.4984 104.641 36.718 104.797 36.9062C104.97 37.0787 105.205 37.212 105.503 37.3061C105.801 37.3845 106.154 37.4237 106.562 37.4237C106.97 37.4237 107.307 37.3845 107.574 37.3061C107.856 37.212 108.068 37.0552 108.209 36.8356C108.35 36.6003 108.421 36.2867 108.421 35.8945C108.421 35.5966 108.405 35.1496 108.373 34.5536C108.342 33.9576 108.311 33.291 108.279 32.5538C108.248 31.801 108.217 31.0482 108.185 30.2953C108.154 29.5425 108.138 28.8681 108.138 28.2721C108.138 27.6918 108.138 27.0722 108.138 26.4135C108.154 25.7391 108.162 25.0804 108.162 24.4373C108.162 23.7943 108.162 23.214 108.162 22.6964C108.177 22.1788 108.185 21.7789 108.185 21.4965C108.185 21.277 108.17 21.0025 108.138 20.6731C108.123 20.3281 108.083 20.0301 108.021 19.7791H111.879ZM101.692 21.7789C102.131 21.8416 102.61 21.9043 103.127 21.9671C103.645 22.0298 104.162 22.0925 104.68 22.1553C105.213 22.2023 105.707 22.2415 106.162 22.2729C106.633 22.2886 107.04 22.2964 107.385 22.2964C109.048 22.2964 110.679 22.2494 112.279 22.1553C113.879 22.0612 115.588 21.8651 117.407 21.5671L117.384 24.8137C116.631 24.9235 115.714 25.0255 114.631 25.1196C113.565 25.2137 112.404 25.2921 111.15 25.3548C109.91 25.4019 108.664 25.4254 107.409 25.4254C106.938 25.4254 106.358 25.4097 105.668 25.3784C104.994 25.3313 104.303 25.2764 103.598 25.2137C102.908 25.1353 102.296 25.0647 101.763 25.0019L101.692 21.7789ZM101.551 26.9076C101.912 26.9703 102.351 27.033 102.868 27.0958C103.386 27.1585 103.911 27.2056 104.445 27.2369C104.994 27.2683 105.503 27.2997 105.974 27.331C106.444 27.3467 106.813 27.3546 107.08 27.3546C108.711 27.3546 110.146 27.3232 111.385 27.2605C112.64 27.1977 113.777 27.1193 114.796 27.0252C115.831 26.9311 116.811 26.8291 117.737 26.7193L117.713 30.0601C116.898 30.1542 116.106 30.2326 115.337 30.2953C114.584 30.3581 113.808 30.413 113.008 30.46C112.208 30.4914 111.322 30.5149 110.35 30.5306C109.393 30.5463 108.287 30.5541 107.032 30.5541C106.625 30.5541 106.084 30.5463 105.409 30.5306C104.75 30.4992 104.076 30.46 103.386 30.413C102.696 30.3659 102.1 30.311 101.598 30.2483L101.551 26.9076ZM131.453 22.2259C132.221 22.32 133.068 22.3905 133.993 22.4376C134.919 22.469 135.852 22.4768 136.793 22.4611C137.75 22.4454 138.659 22.4141 139.522 22.367C140.4 22.32 141.169 22.2651 141.828 22.2023V25.8724C141.059 25.9351 140.236 25.99 139.357 26.0371C138.479 26.0685 137.585 26.0841 136.675 26.0841C135.766 26.0841 134.864 26.0685 133.97 26.0371C133.092 25.99 132.26 25.9351 131.476 25.8724L131.453 22.2259ZM133.876 32.5303C133.797 32.9067 133.735 33.2361 133.688 33.5184C133.656 33.8007 133.641 34.0987 133.641 34.4124C133.641 34.6633 133.703 34.8829 133.829 35.0711C133.954 35.2593 134.135 35.4083 134.37 35.5181C134.621 35.6279 134.927 35.7142 135.287 35.7769C135.648 35.824 136.072 35.8475 136.558 35.8475C137.609 35.8475 138.589 35.8004 139.499 35.7063C140.424 35.5966 141.42 35.4319 142.486 35.2123L142.557 39.0706C141.788 39.2117 140.91 39.3215 139.922 39.3999C138.95 39.4784 137.765 39.5176 136.37 39.5176C134.315 39.5176 132.77 39.1568 131.735 38.4354C130.715 37.7139 130.206 36.7258 130.206 35.4711C130.206 34.9692 130.237 34.4595 130.3 33.9419C130.378 33.4243 130.488 32.8597 130.629 32.248L133.876 32.5303ZM128.324 20.7908C128.261 20.9633 128.182 21.2142 128.088 21.5436C127.994 21.873 127.908 22.1945 127.83 22.5082C127.751 22.8218 127.696 23.0493 127.665 23.1904C127.618 23.4414 127.547 23.8178 127.453 24.3197C127.359 24.8216 127.257 25.4019 127.147 26.0606C127.053 26.7037 126.959 27.3702 126.865 28.0603C126.771 28.7348 126.692 29.3856 126.63 30.013C126.567 30.6247 126.536 31.1501 126.536 31.5893C126.536 31.6206 126.536 31.7069 126.536 31.8481C126.536 31.9892 126.543 32.0833 126.559 32.1304C126.669 31.9108 126.771 31.7069 126.865 31.5187C126.975 31.3305 127.077 31.1423 127.171 30.9541C127.281 30.7502 127.383 30.5384 127.477 30.3189L129.194 31.6834C128.959 32.3892 128.724 33.1263 128.488 33.8948C128.269 34.6633 128.073 35.3848 127.9 36.0592C127.728 36.7336 127.594 37.2904 127.5 37.7296C127.469 37.9021 127.437 38.106 127.406 38.3413C127.375 38.5765 127.359 38.7491 127.359 38.8588C127.359 38.9843 127.359 39.1412 127.359 39.3294C127.359 39.5333 127.367 39.7293 127.383 39.9175L124.089 40.1293C123.854 39.3451 123.634 38.2628 123.43 36.8826C123.242 35.4868 123.148 33.9889 123.148 32.3892C123.148 31.4952 123.179 30.5933 123.242 29.6836C123.32 28.774 123.407 27.9035 123.501 27.0722C123.611 26.2253 123.712 25.4646 123.807 24.7902C123.916 24.1158 124.003 23.559 124.065 23.1198C124.112 22.7591 124.167 22.3356 124.23 21.8494C124.293 21.3632 124.332 20.9005 124.348 20.4614L128.324 20.7908Z" fill="#0B6446"/>
<path d="M72.8314 11.2497C72.2411 11.2497 71.7467 11.0497 71.348 10.6497C70.9494 10.2497 70.7494 9.75523 70.748 9.16634C70.7467 8.57745 70.9467 8.08301 71.348 7.68301C71.7494 7.28301 72.2439 7.08301 72.8314 7.08301H81.1647C81.755 7.08301 82.2501 7.28301 82.6501 7.68301C83.0501 8.08301 83.2494 8.57745 83.248 9.16634C83.2467 9.75523 83.0467 10.2504 82.648 10.6518C82.2494 11.0531 81.755 11.2525 81.1647 11.2497H72.8314ZM76.998 34.1663C77.5883 34.1663 78.0835 33.9663 78.4835 33.5663C78.8835 33.1663 79.0828 32.6719 79.0814 32.083V23.7497C79.0814 23.1594 78.8814 22.665 78.4814 22.2663C78.0814 21.8677 77.5869 21.6677 76.998 21.6663C76.4092 21.665 75.9147 21.865 75.5147 22.2663C75.1147 22.6677 74.9147 23.1622 74.9147 23.7497V32.083C74.9147 32.6733 75.1147 33.1684 75.5147 33.5684C75.9147 33.9684 76.4092 34.1677 76.998 34.1663ZM76.998 50.833C74.4286 50.833 72.0064 50.3386 69.7314 49.3497C67.4564 48.3608 65.4689 47.0149 63.7689 45.3122C62.0689 43.6094 60.7237 41.6212 59.7335 39.3476C58.7432 37.074 58.248 34.6524 58.248 32.083C58.248 29.5136 58.7432 27.0913 59.7335 24.8163C60.7237 22.5413 62.0689 20.5538 63.7689 18.8538C65.4689 17.1538 67.4571 15.8087 69.7335 14.8184C72.0098 13.8281 74.4314 13.333 76.998 13.333C79.1508 13.333 81.2168 13.6802 83.196 14.3747C85.1751 15.0691 87.0328 16.0761 88.7689 17.3955L90.2272 15.9372C90.6092 15.5552 91.0953 15.3643 91.6855 15.3643C92.2758 15.3643 92.7619 15.5552 93.1439 15.9372C93.5258 16.3191 93.7168 16.8052 93.7168 17.3955C93.7168 17.9858 93.5258 18.4719 93.1439 18.8538L91.6855 20.3122C93.005 22.0483 94.0119 23.9059 94.7064 25.8851C95.4008 27.8643 95.748 29.9302 95.748 32.083C95.748 34.6524 95.2529 37.0747 94.2626 39.3497C93.2724 41.6247 91.9272 43.6122 90.2272 45.3122C88.5272 47.0122 86.539 48.358 84.2626 49.3497C81.9862 50.3413 79.5647 50.8358 76.998 50.833ZM76.998 46.6663C81.0258 46.6663 84.4633 45.2427 87.3105 42.3955C90.1578 39.5483 91.5814 36.1108 91.5814 32.083C91.5814 28.0552 90.1578 24.6177 87.3105 21.7705C84.4633 18.9233 81.0258 17.4997 76.998 17.4997C72.9703 17.4997 69.5328 18.9233 66.6855 21.7705C63.8383 24.6177 62.4147 28.0552 62.4147 32.083C62.4147 36.1108 63.8383 39.5483 66.6855 42.3955C69.5328 45.2427 72.9703 46.6663 76.998 46.6663Z" fill="#0B6446"/>
<path d="M77 23L77 33" stroke="#FFAA06" stroke-width="4.17" stroke-linecap="round"/>
<path d="M10 44H55" stroke="#0B6446" stroke-opacity="0.3" stroke-width="3" stroke-linecap="round"/>
<path d="M98 44H143" stroke="#0B6446" stroke-opacity="0.3" stroke-width="3" stroke-linecap="round"/>
</svg>
