<svg width="38" height="38" viewBox="0 0 38 38" fill="none" xmlns="http://www.w3.org/2000/svg">
<path d="M23.6557 30.8753L19.0007 28.1362L14.3457 30.8753L15.5807 25.587L11.4798 22.0403L16.879 21.5812L19.0007 16.6253L21.1223 21.5812L26.5215 22.0403L22.4207 25.587M31.6673 3.16699H6.334V6.33366L14.029 12.097C11.3443 13.2427 9.1377 15.2804 7.78233 17.8656C6.42697 20.4507 6.00603 23.4247 6.59072 26.2844C7.17541 29.1442 8.72984 31.7143 10.9911 33.56C13.2524 35.4057 16.0817 36.4138 19.0007 36.4138C21.9196 36.4138 24.7489 35.4057 27.0102 33.56C29.2715 31.7143 30.8259 29.1442 31.4106 26.2844C31.9953 23.4247 31.5744 20.4507 30.219 17.8656C28.8636 15.2804 26.657 13.2427 23.9723 12.097L31.6673 6.33366M28.5007 23.7503C28.5015 25.5494 27.9915 27.3118 27.0299 28.8324C26.0683 30.3529 24.6947 31.5692 23.0689 32.3396C21.4431 33.1101 19.632 33.403 17.8462 33.1844C16.0605 32.9658 14.3735 32.2445 12.9816 31.1046C11.5897 29.9648 10.55 28.4531 9.98368 26.7454C9.41732 25.0378 9.34749 23.2044 9.78233 21.4587C10.2172 19.7129 11.1388 18.1265 12.44 16.8841C13.7411 15.6416 15.3684 14.7941 17.1323 14.4403C18.3652 14.1887 19.6362 14.1887 20.869 14.4403C23.0206 14.8719 24.9565 16.0351 26.3477 17.7322C27.7389 19.4294 28.4996 21.5558 28.5007 23.7503ZM19.9982 11.0837H18.0032L11.6698 6.33366H26.4582L19.9982 11.0837Z" fill="#0B6446"/>
</svg>
