<svg width="36" height="36" viewBox="0 0 36 36" fill="none" xmlns="http://www.w3.org/2000/svg">
<path d="M21.54 21.345C20.5373 22.1535 19.288 22.5943 18 22.5943C16.712 22.5943 15.4627 22.1535 14.46 21.345C14.1537 21.0904 13.7588 20.9679 13.3621 21.0045C12.9655 21.041 12.5996 21.2337 12.345 21.54C12.0904 21.8463 11.9679 22.2412 12.0045 22.6379C12.041 23.0345 12.2337 23.4004 12.54 23.655C14.072 24.9339 16.0043 25.6345 18 25.6345C19.9957 25.6345 21.928 24.9339 23.46 23.655C23.7663 23.4004 23.959 23.0345 23.9955 22.6379C24.0321 22.2412 23.9096 21.8463 23.655 21.54C23.5289 21.3883 23.3742 21.263 23.1997 21.1711C23.0252 21.0792 22.8343 21.0226 22.6379 21.0045C22.2413 20.9679 21.8463 21.0904 21.54 21.345ZM13.5 16.5C13.7967 16.5 14.0867 16.412 14.3334 16.2472C14.58 16.0824 14.7723 15.8481 14.8858 15.574C14.9994 15.2999 15.0291 14.9983 14.9712 14.7074C14.9133 14.4164 14.7704 14.1491 14.5607 13.9393C14.3509 13.7296 14.0836 13.5867 13.7926 13.5288C13.5017 13.4709 13.2001 13.5006 12.926 13.6142C12.6519 13.7277 12.4176 13.92 12.2528 14.1666C12.088 14.4133 12 14.7033 12 15C12 15.3978 12.158 15.7794 12.4393 16.0607C12.7207 16.342 13.1022 16.5 13.5 16.5ZM22.5 13.5C22.2033 13.5 21.9133 13.588 21.6667 13.7528C21.42 13.9176 21.2277 14.1519 21.1142 14.426C21.0007 14.7001 20.971 15.0017 21.0288 15.2926C21.0867 15.5836 21.2296 15.8509 21.4393 16.0607C21.6491 16.2704 21.9164 16.4133 22.2074 16.4712C22.4983 16.5291 22.7999 16.4994 23.074 16.3858C23.3481 16.2723 23.5824 16.08 23.7472 15.8334C23.912 15.5867 24 15.2967 24 15C24 14.6022 23.842 14.2206 23.5607 13.9393C23.2794 13.658 22.8978 13.5 22.5 13.5ZM18 3C15.0333 3 12.1332 3.87973 9.66645 5.52796C7.19972 7.17618 5.27713 9.51886 4.14181 12.2597C3.0065 15.0006 2.70945 18.0166 3.28823 20.9264C3.86701 23.8361 5.29562 26.5088 7.3934 28.6066C9.49119 30.7044 12.1639 32.133 15.0737 32.7118C17.9834 33.2906 20.9994 32.9935 23.7403 31.8582C26.4812 30.7229 28.8238 28.8003 30.472 26.3336C32.1203 23.8668 33 20.9667 33 18C33 16.0302 32.612 14.0796 31.8582 12.2597C31.1044 10.4399 29.9995 8.78628 28.6066 7.3934C27.2137 6.00052 25.5601 4.89563 23.7403 4.14181C21.9204 3.38799 19.9698 3 18 3ZM18 30C15.6266 30 13.3066 29.2962 11.3332 27.9776C9.35977 26.6591 7.8217 24.7849 6.91345 22.5922C6.0052 20.3995 5.76756 17.9867 6.23058 15.6589C6.69361 13.3311 7.83649 11.1929 9.51473 9.51472C11.193 7.83649 13.3312 6.6936 15.6589 6.23058C17.9867 5.76755 20.3995 6.00519 22.5922 6.91345C24.7849 7.8217 26.6591 9.35977 27.9776 11.3332C29.2962 13.3065 30 15.6266 30 18C30 21.1826 28.7357 24.2348 26.4853 26.4853C24.2349 28.7357 21.1826 30 18 30Z" fill="#FFAA06"/>
</svg>
