<svg width="34" height="34" viewBox="0 0 34 34" fill="none" xmlns="http://www.w3.org/2000/svg">
<path d="M24.3165 2.13562C26.356 2.24105 28.2772 3.12548 29.6835 4.60636C31.0898 6.08724 31.8738 8.05152 31.8738 10.0938C31.8738 12.136 31.0898 14.1003 29.6835 15.5811C28.2772 17.062 26.356 17.9464 24.3165 18.0519L23.9063 18.0625C23.4445 18.0611 22.9947 18.0207 22.557 17.9414L21.3776 19.125L23.3772 21.1225L25.5022 18.9975L30.6128 24.1102L30.9295 24.4587C31.6449 25.3423 32.0079 26.4595 31.9484 27.5948C31.8889 28.7301 31.4111 29.8032 30.6072 30.6072C29.8033 31.4111 28.7302 31.8888 27.5949 31.9483C26.4595 32.0078 25.3424 31.6449 24.4588 30.9294L24.1103 30.6128L18.9955 25.5L21.1205 23.375L19.123 21.3775L9.89196 30.6106C9.08727 31.4157 8.0126 31.8937 6.87584 31.9522C5.73907 32.0107 4.62102 31.6455 3.73796 30.9272L3.38946 30.6106C2.5273 29.7483 2.04297 28.5788 2.04297 27.3594C2.04297 26.14 2.5273 24.9705 3.38946 24.1081L12.6183 14.8729L7.43758 9.69212L6.12858 11.0011L5.04908 9.384L2.92408 6.1965L2.20158 5.1085L5.10858 2.19937L6.19658 2.924L9.38408 5.049L10.9991 6.1285L9.69221 7.4375L14.873 12.6183L16.0566 11.4368C15.8611 10.2936 15.9175 9.12161 16.2219 8.00254C16.5262 6.88347 17.0712 5.84431 17.8186 4.95762C18.5661 4.07093 19.4981 3.35808 20.5496 2.86883C21.601 2.37958 22.7466 2.12573 23.9063 2.125L24.3165 2.13562ZM23.9063 5.3125C23.1598 5.31255 22.4236 5.48742 21.7568 5.8231C21.09 6.15878 20.511 6.64594 20.0663 7.24557C19.6216 7.8452 19.3235 8.54064 19.1958 9.27619C19.0682 10.0117 19.1145 10.767 19.3312 11.4814L19.6075 12.3951L18.9317 13.0688L5.64196 26.3606C5.37776 26.6259 5.22942 26.985 5.22942 27.3594C5.22942 27.7338 5.37776 28.0929 5.64196 28.3581L5.86508 28.5387C6.41121 28.9 7.15708 28.8405 7.63946 28.3581L20.9292 15.0662L21.6028 14.3905L22.5166 14.6667C22.9614 14.8027 23.4247 14.8722 23.9063 14.875L24.3951 14.8495C25.1566 14.7703 25.888 14.5094 26.5278 14.0888C27.1675 13.6681 27.6968 13.0999 28.0713 12.4321C28.4457 11.7642 28.6543 11.0162 28.6794 10.251C28.7046 9.48572 28.5456 8.72563 28.2158 8.03462L25.0326 11.2221C24.7319 11.5123 24.3292 11.6728 23.9113 11.6689C23.4934 11.6651 23.0938 11.4973 22.7984 11.2017C22.5031 10.906 22.3357 10.5062 22.3322 10.0883C22.3288 9.67046 22.4896 9.26795 22.7801 8.9675L25.9633 5.78C25.4705 5.54201 24.9397 5.3924 24.3951 5.338L23.9063 5.3125ZM23.5026 25.5L26.3607 28.3581L26.5838 28.5387C26.8551 28.7179 27.18 28.7979 27.5035 28.7652C27.827 28.7325 28.1293 28.589 28.3592 28.3591C28.5891 28.1292 28.7325 27.8269 28.7653 27.5034C28.798 27.1799 28.718 26.8551 28.5388 26.5837L28.3582 26.3606L25.5001 23.5025L23.5026 25.5Z" fill="#FFAA06"/>
</svg>
