<svg width="27" height="27" viewBox="0 0 27 27" fill="none" xmlns="http://www.w3.org/2000/svg">
<path d="M18.0389 3.39115C18.6447 2.78522 19.4582 2.43238 20.3146 2.40417C21.1709 2.37597 22.0059 2.67452 22.6503 3.23928L22.8123 3.39115L23.6076 4.18653C24.2133 4.79225 24.5659 5.60558 24.5941 6.46166C24.6223 7.31773 24.3239 8.15251 23.7595 8.79678L23.6076 8.95878L10.9941 21.5734C10.8158 21.7517 10.5998 21.8878 10.3619 21.9717L10.1796 22.0245L5.1689 23.181C4.99333 23.2219 4.81052 23.2199 4.63586 23.1753C4.4612 23.1308 4.29982 23.0449 4.16529 22.9249C4.03076 22.8049 3.92703 22.6544 3.86283 22.4859C3.79863 22.3175 3.77585 22.1361 3.7964 21.957L3.8189 21.8299L4.97427 16.818C5.03135 16.5722 5.14283 16.3423 5.30052 16.1453L5.4254 16.0047L18.0389 3.39115ZM17.2435 7.36803L7.12977 17.4818L6.41427 20.5845L9.51702 19.8679L19.6308 9.75415L17.2435 7.36803ZM21.2215 4.9819C21.0278 4.7882 20.7701 4.67184 20.4967 4.65465C20.2233 4.63746 19.953 4.72062 19.7365 4.88853L19.6308 4.9819L18.8343 5.77728L21.2215 8.1634L22.0169 7.36803C22.2106 7.17431 22.327 6.91657 22.3441 6.64317C22.3613 6.36976 22.2782 6.09948 22.1103 5.88303L22.0169 5.77728L21.2215 4.9819Z" fill="#0B6446"/>
</svg>
