<svg width="42" height="42" viewBox="0 0 42 42" fill="none" xmlns="http://www.w3.org/2000/svg">
<path d="M21 3.49902C30.6652 3.49902 38.5 11.3338 38.5 20.999C38.5 30.6643 30.6652 38.499 21 38.499C11.3348 38.499 3.5 30.6643 3.5 20.999C3.5 11.3338 11.3348 3.49902 21 3.49902ZM21 6.99902C17.287 6.99902 13.726 8.47402 11.1005 11.0995C8.475 13.725 7 17.286 7 20.999C7 24.7121 8.475 28.273 11.1005 30.8985C13.726 33.524 17.287 34.999 21 34.999C24.713 34.999 28.274 33.524 30.8995 30.8985C33.525 28.273 35 24.7121 35 20.999C35 17.286 33.525 13.725 30.8995 11.0995C28.274 8.47402 24.713 6.99902 21 6.99902ZM21 27.999C21.4641 27.999 21.9092 28.1834 22.2374 28.5116C22.5656 28.8398 22.75 29.2849 22.75 29.749C22.75 30.2132 22.5656 30.6583 22.2374 30.9865C21.9092 31.3147 21.4641 31.499 21 31.499C20.5359 31.499 20.0908 31.3147 19.7626 30.9865C19.4344 30.6583 19.25 30.2132 19.25 29.749C19.25 29.2849 19.4344 28.8398 19.7626 28.5116C20.0908 28.1834 20.5359 27.999 21 27.999ZM21 11.374C22.474 11.3741 23.902 11.8874 25.0386 12.8258C26.1753 13.7643 26.9497 15.0692 27.2288 16.5165C27.5079 17.9639 27.2743 19.4632 26.5681 20.757C25.8619 22.0508 24.7273 23.0584 23.359 23.6065C23.1563 23.681 22.9737 23.8014 22.8253 23.9583C22.7483 24.0458 22.736 24.1578 22.7378 24.2733L22.75 24.499C22.7495 24.9451 22.5787 25.3741 22.2725 25.6984C21.9663 26.0228 21.5478 26.2179 21.1026 26.2441C20.6573 26.2702 20.2188 26.1253 19.8768 25.8391C19.5348 25.5528 19.3149 25.1467 19.2622 24.7038L19.25 24.499V24.0615C19.25 22.0438 20.8775 20.8328 22.057 20.3585C22.537 20.1668 22.9558 19.848 23.2683 19.4362C23.5808 19.0245 23.7753 18.5354 23.8308 18.0215C23.8863 17.5076 23.8008 16.9882 23.5834 16.5193C23.366 16.0503 23.025 15.6494 22.5969 15.3596C22.1689 15.0698 21.67 14.9021 21.1538 14.8745C20.6377 14.8469 20.1237 14.9604 19.6672 15.2028C19.2107 15.4452 18.8288 15.8074 18.5626 16.2505C18.2964 16.6936 18.1559 17.2009 18.1562 17.7178C18.1562 18.1819 17.9719 18.627 17.6437 18.9552C17.3155 19.2834 16.8704 19.4678 16.4062 19.4678C15.9421 19.4678 15.497 19.2834 15.1688 18.9552C14.8406 18.627 14.6562 18.1819 14.6562 17.7178C14.6562 16.0353 15.3246 14.4217 16.5143 13.2321C17.704 12.0424 19.3175 11.374 21 11.374Z" fill="#0B6446"/>
</svg>
