<svg width="38" height="38" viewBox="0 0 38 38" fill="none" xmlns="http://www.w3.org/2000/svg">
<path fill-rule="evenodd" clip-rule="evenodd" d="M31.6673 6.33366H6.33398C5.91406 6.33366 5.51133 6.50047 5.2144 6.79741C4.91747 7.09434 4.75065 7.49707 4.75065 7.91699V30.0837C4.75065 30.5036 4.91747 30.9063 5.2144 31.2032C5.51133 31.5002 5.91406 31.667 6.33398 31.667H31.6673C32.0872 31.667 32.49 31.5002 32.7869 31.2032C33.0838 30.9063 33.2506 30.5036 33.2506 30.0837V7.91699C33.2506 7.49707 33.0838 7.09434 32.7869 6.79741C32.49 6.50047 32.0872 6.33366 31.6673 6.33366ZM6.33398 3.16699C5.07421 3.16699 3.86602 3.66744 2.97523 4.55824C2.08443 5.44903 1.58398 6.65721 1.58398 7.91699V30.0837C1.58398 31.3434 2.08443 32.5516 2.97523 33.4424C3.86602 34.3332 5.07421 34.8337 6.33398 34.8337H31.6673C32.9271 34.8337 34.1353 34.3332 35.0261 33.4424C35.9169 32.5516 36.4173 31.3434 36.4173 30.0837V7.91699C36.4173 6.65721 35.9169 5.44903 35.0261 4.55824C34.1353 3.66744 32.9271 3.16699 31.6673 3.16699H6.33398ZM9.50065 11.0837H12.6673V14.2503H9.50065V11.0837ZM17.4173 11.0837C16.9974 11.0837 16.5947 11.2505 16.2977 11.5474C16.0008 11.8443 15.834 12.2471 15.834 12.667C15.834 13.0869 16.0008 13.4896 16.2977 13.7866C16.5947 14.0835 16.9974 14.2503 17.4173 14.2503H26.9173C27.3372 14.2503 27.74 14.0835 28.0369 13.7866C28.3338 13.4896 28.5006 13.0869 28.5006 12.667C28.5006 12.2471 28.3338 11.8443 28.0369 11.5474C27.74 11.2505 27.3372 11.0837 26.9173 11.0837H17.4173ZM12.6673 17.417H9.50065V20.5837H12.6673V17.417ZM15.834 19.0003C15.834 18.5804 16.0008 18.1777 16.2977 17.8807C16.5947 17.5838 16.9974 17.417 17.4173 17.417H26.9173C27.3372 17.417 27.74 17.5838 28.0369 17.8807C28.3338 18.1777 28.5006 18.5804 28.5006 19.0003C28.5006 19.4203 28.3338 19.823 28.0369 20.1199C27.74 20.4168 27.3372 20.5837 26.9173 20.5837H17.4173C16.9974 20.5837 16.5947 20.4168 16.2977 20.1199C16.0008 19.823 15.834 19.4203 15.834 19.0003ZM12.6673 23.7503H9.50065V26.917H12.6673V23.7503ZM15.834 25.3337C15.834 24.9137 16.0008 24.511 16.2977 24.2141C16.5947 23.9171 16.9974 23.7503 17.4173 23.7503H26.9173C27.3372 23.7503 27.74 23.9171 28.0369 24.2141C28.3338 24.511 28.5006 24.9137 28.5006 25.3337C28.5006 25.7536 28.3338 26.1563 28.0369 26.4532C27.74 26.7502 27.3372 26.917 26.9173 26.917H17.4173C16.9974 26.917 16.5947 26.7502 16.2977 26.4532C16.0008 26.1563 15.834 25.7536 15.834 25.3337Z" fill="#0B6446"/>
</svg>
