<svg width="24" height="24" viewBox="0 0 24 24" fill="none" xmlns="http://www.w3.org/2000/svg">
<path d="M17.1639 1.5075C18.6035 1.58192 19.9597 2.20622 20.9523 3.25155C21.945 4.29687 22.4985 5.68343 22.4985 7.125C22.4985 8.56657 21.945 9.95312 20.9523 10.9985C19.9597 12.0438 18.6035 12.6681 17.1639 12.7425L16.8744 12.75C16.5484 12.749 16.2309 12.7205 15.9219 12.6645L15.0894 13.5L16.5009 14.91L18.0009 13.41L21.6084 17.019L21.8319 17.265C22.3369 17.8887 22.5931 18.6773 22.5511 19.4787C22.5091 20.2801 22.1719 21.0376 21.6044 21.605C21.037 22.1725 20.2795 22.5098 19.4781 22.5518C18.6766 22.5938 17.888 22.3375 17.2644 21.8325L17.0184 21.609L13.4079 18L14.9079 16.5L13.4979 15.09L6.98187 21.6075C6.41386 22.1758 5.65526 22.5132 4.85284 22.5545C4.05042 22.5958 3.2612 22.338 2.63787 21.831L2.39187 21.6075C1.78329 20.9988 1.44141 20.1733 1.44141 19.3125C1.44141 18.4517 1.78329 17.6262 2.39187 17.0175L8.90637 10.4985L5.24937 6.8415L4.32537 7.7655L3.56337 6.624L2.06337 4.374L1.55337 3.606L3.60537 1.5525L4.37337 2.064L6.62337 3.564L7.76337 4.326L6.84087 5.25L10.4979 8.907L11.3334 8.073C11.1954 7.26609 11.2352 6.43878 11.4501 5.64885C11.6649 4.85892 12.0495 4.1254 12.5772 3.4995C13.1048 2.8736 13.7627 2.37041 14.5049 2.02506C15.2471 1.6797 16.0557 1.50052 16.8744 1.5L17.1639 1.5075ZM16.8744 3.75C16.3474 3.75004 15.8278 3.87347 15.3571 4.11042C14.8864 4.34737 14.4777 4.69125 14.1638 5.11452C13.8499 5.53779 13.6394 6.02869 13.5493 6.5479C13.4592 7.06711 13.4919 7.60021 13.6449 8.1045L13.8399 8.7495L13.3629 9.225L3.98187 18.6075C3.79538 18.7947 3.69067 19.0482 3.69067 19.3125C3.69067 19.5768 3.79538 19.8303 3.98187 20.0175L4.13937 20.145C4.52487 20.4 5.05137 20.358 5.39187 20.0175L14.7729 10.635L15.2484 10.158L15.8934 10.353C16.2074 10.449 16.5344 10.498 16.8744 10.5L17.2194 10.482C17.7569 10.4261 18.2732 10.242 18.7248 9.94501C19.1764 9.64806 19.55 9.247 19.8143 8.77558C20.0786 8.30415 20.2259 7.77614 20.2436 7.23597C20.2614 6.6958 20.1491 6.15927 19.9164 5.6715L17.6694 7.9215C17.4571 8.12633 17.1729 8.23959 16.8779 8.23689C16.5829 8.23419 16.3008 8.11574 16.0923 7.90706C15.8838 7.69837 15.7657 7.41615 15.7632 7.12118C15.7608 6.8262 15.8743 6.54208 16.0794 6.33L18.3264 4.08C17.9785 3.912 17.6038 3.8064 17.2194 3.768L16.8744 3.75ZM16.5894 18L18.6069 20.0175L18.7644 20.145C18.9559 20.2715 19.1852 20.3279 19.4136 20.3048C19.6419 20.2817 19.8553 20.1805 20.0176 20.0182C20.1798 19.8559 20.2811 19.6425 20.3042 19.4142C20.3273 19.1858 20.2709 18.9565 20.1444 18.765L20.0169 18.6075L17.9994 16.59L16.5894 18Z" fill="#0B6446"/>
</svg>
